+ filenameToUse=/home/horvathandras/vatic/vatic/public/videouploads/DJI_0023_30m_szarvasragas_homokmegy_20180603_napos_napraforgo_T3.avi
+ filenameNoDot=DJI_0023_30m_szarvasragas_homokmegy_20180603_napos_napraforgo_T3
+ FullUploadPath=/home/horvathandras/vatic/vatic/public/videouploads/DJI_0023_30m_szarvasragas_homokmegy_20180603_napos_napraforgo_T3.avi
+ VideoDataDir=/home/horvathandras/vatic/vatic/videos
+ AvailableObjectTypes='PozitívROI NegatívROI Túrás ~Friss ~1-2Hetes ~Régebbi ~Egyéb1 ~Egyéb2 ~Egyéb3 Rágás ~Friss ~1-2Hetes ~Régebbi ~Egyéb1 ~Egyéb2 ~Egyéb3 Törés ~Friss ~1-2Hetes ~Régebbi ~Egyéb1 ~Egyéb2 ~Egyéb3 Taposás ~Friss ~1-2Hetes ~Régebbi ~Egyéb1 ~Egyéb2 ~Egyéb3 EgészségesNövény Egyéb1 Egyéb2 Egyéb3 Egyéb4 Egyéb5 Bizonytalan Művelőút Gktaposás Vetőhiba Széldöntés Jégkár Belvíz Aszály Erózió EgyszikűGyom KétszikűGyom EgyébNövvédelmiPR'
++ dirname /home/horvathandras/vatic/vatic/vatic_publisher.sh
+ cd /home/horvathandras/vatic/vatic
+ touch /home/horvathandras/vatic/vatic/public/videouploads/DJI_0023_30m_szarvasragas_homokmegy_20180603_napos_napraforgo_T3.avi
+ chmod 744 /home/horvathandras/vatic/vatic/public/videouploads/DJI_0023_30m_szarvasragas_homokmegy_20180603_napos_napraforgo_T3.avi
+ mkdir /home/horvathandras/vatic/vatic/videos/DJI_0023_30m_szarvasragas_homokmegy_20180603_napos_napraforgo_T3
+ turkic extract /home/horvathandras/vatic/vatic/public/videouploads/DJI_0023_30m_szarvasragas_homokmegy_20180603_napos_napraforgo_T3.avi /home/horvathandras/vatic/vatic/videos/DJI_0023_30m_szarvasragas_homokmegy_20180603_napos_napraforgo_T3 --no-resize
ffmpeg version 2.8.14-0ubuntu0.16.04.1 Copyright (c) 2000-2018 the FFmpeg developers
  built with gcc 5.4.0 (Ubuntu 5.4.0-6ubuntu1~16.04.9) 20160609
  configuration: --prefix=/usr --extra-version=0ubuntu0.16.04.1 --build-suffix=-ffmpeg --toolchain=hardened --libdir=/usr/lib/x86_64-linux-gnu --incdir=/usr/include/x86_64-linux-gnu --cc=cc --cxx=g++ --enable-gpl --enable-shared --disable-stripping --disable-decoder=libopenjpeg --disable-decoder=libschroedinger --enable-avresample --enable-avisynth --enable-gnutls --enable-ladspa --enable-libass --enable-libbluray --enable-libbs2b --enable-libcaca --enable-libcdio --enable-libflite --enable-libfontconfig --enable-libfreetype --enable-libfribidi --enable-libgme --enable-libgsm --enable-libmodplug --enable-libmp3lame --enable-libopenjpeg --enable-libopus --enable-libpulse --enable-librtmp --enable-libschroedinger --enable-libshine --enable-libsnappy --enable-libsoxr --enable-libspeex --enable-libssh --enable-libtheora --enable-libtwolame --enable-libvorbis --enable-libvpx --enable-libwavpack --enable-libwebp --enable-libx265 --enable-libxvid --enable-libzvbi --enable-openal --enable-opengl --enable-x11grab --enable-libdc1394 --enable-libiec61883 --enable-libzmq --enable-frei0r --enable-libx264 --enable-libopencv
  libavutil      54. 31.100 / 54. 31.100
  libavcodec     56. 60.100 / 56. 60.100
  libavformat    56. 40.101 / 56. 40.101
  libavdevice    56.  4.100 / 56.  4.100
  libavfilter     5. 40.101 /  5. 40.101
  libavresample   2.  1.  0 /  2.  1.  0
  libswscale      3.  1.101 /  3.  1.101
  libswresample   1.  2.101 /  1.  2.101
  libpostproc    53.  3.100 / 53.  3.100
Input #0, mov,mp4,m4a,3gp,3g2,mj2, from '/home/horvathandras/vatic/vatic/public/videouploads/DJI_0023_30m_szarvasragas_homokmegy_20180603_napos_napraforgo_T3.avi':
  Metadata:
    major_brand     : qt  
    minor_version   : 537986816
    compatible_brands: qt  
    creation_time   : 2018-06-03 08:05:36
    location        : +46.516156+19.136868+30.300
    location-{    : +46.516156+19.136868+30.300
    comment         : DE=None, Mode=P, DSW=0001
  Duration: 00:00:23.58, start: 0.000000, bitrate: 101081 kb/s
    Stream #0:0(eng): Video: h264 (High) (avc1 / 0x31637661), yuv420p(tv, bt709), 4096x2160 [SAR 1:1 DAR 256:135], 100896 kb/s, 50 fps, 50 tbr, 50k tbn, 100 tbc (default)
    Metadata:
      creation_time   : 2018-06-03 08:05:36
      handler_name    : DJI.AVC
      encoder         : AVC encoder
    Stream #0:1(eng): Data: none (priv / 0x76697270), 177 kb/s
    Metadata:
      creation_time   : 2018-06-03 08:05:36
      handler_name    : DJI.Meta
Please use -b:a or -b:v, -b is ambiguous
[swscaler @ 0x23ea340] deprecated pixel format used, make sure you did set range correctly
Output #0, image2, to '/tmp/pyvision-ffmpeg-211002079/%d.jpg':
  Metadata:
    major_brand     : qt  
    minor_version   : 537986816
    compatible_brands: qt  
    comment         : DE=None, Mode=P, DSW=0001
    location        : +46.516156+19.136868+30.300
    location-{    : +46.516156+19.136868+30.300
    encoder         : Lavf56.40.101
    Stream #0:0(eng): Video: mjpeg, yuvj420p(pc), 4096x2160 [SAR 1:1 DAR 256:135], q=2-31, 10000 kb/s, 50 fps, 50 tbn, 50 tbc (default)
    Metadata:
      creation_time   : 2018-06-03 08:05:36
      handler_name    : DJI.AVC
      encoder         : Lavc56.60.100 mjpeg
Stream mapping:
  Stream #0:0 -> #0:0 (h264 (native) -> mjpeg (native))
Press [q] to stop, [?] for help
frame=    1 fps=1.0 q=19.7 size=N/A time=00:00:00.02 bitrate=N/A    frame=    4 fps=2.4 q=24.8 size=N/A time=00:00:00.08 bitrate=N/A    frame=    7 fps=3.2 q=24.8 size=N/A time=00:00:00.14 bitrate=N/A    frame=   10 fps=3.7 q=24.8 size=N/A time=00:00:00.20 bitrate=N/A    frame=   13 fps=3.9 q=24.8 size=N/A time=00:00:00.26 bitrate=N/A    frame=   16 fps=4.2 q=24.8 size=N/A time=00:00:00.32 bitrate=N/A    frame=   19 fps=4.3 q=24.8 size=N/A time=00:00:00.38 bitrate=N/A    frame=   22 fps=4.3 q=24.8 size=N/A time=00:00:00.44 bitrate=N/A    frame=   26 fps=4.5 q=24.8 size=N/A time=00:00:00.52 bitrate=N/A    frame=   29 fps=4.6 q=24.8 size=N/A time=00:00:00.58 bitrate=N/A    frame=   32 fps=4.6 q=24.8 size=N/A time=00:00:00.64 bitrate=N/A    frame=   35 fps=4.6 q=24.8 size=N/A time=00:00:00.70 bitrate=N/A    frame=   38 fps=4.6 q=24.8 size=N/A time=00:00:00.76 bitrate=N/A    frame=   41 fps=4.7 q=24.8 size=N/A time=00:00:00.82 bitrate=N/A    frame=   44 fps=4.7 q=24.8 size=N/A time=00:00:00.88 bitrate=N/A    frame=   48 fps=4.8 q=24.8 size=N/A time=00:00:00.96 bitrate=N/A    frame=   51 fps=4.8 q=24.8 size=N/A time=00:00:01.02 bitrate=N/A    frame=   54 fps=4.8 q=24.8 size=N/A time=00:00:01.08 bitrate=N/A    frame=   57 fps=4.7 q=24.8 size=N/A time=00:00:01.14 bitrate=N/A    frame=   61 fps=4.8 q=24.8 size=N/A time=00:00:01.22 bitrate=N/A    frame=   64 fps=4.8 q=24.8 size=N/A time=00:00:01.28 bitrate=N/A    frame=   67 fps=4.9 q=24.8 size=N/A time=00:00:01.34 bitrate=N/A    frame=   70 fps=4.8 q=24.8 size=N/A time=00:00:01.40 bitrate=N/A    frame=   73 fps=4.9 q=24.8 size=N/A time=00:00:01.46 bitrate=N/A    frame=   77 fps=4.9 q=24.8 size=N/A time=00:00:01.54 bitrate=N/A    frame=   81 fps=5.0 q=24.8 size=N/A time=00:00:01.62 bitrate=N/A    frame=   84 fps=5.0 q=24.8 size=N/A time=00:00:01.68 bitrate=N/A    frame=   87 fps=5.0 q=24.8 size=N/A time=00:00:01.74 bitrate=N/A    frame=   90 fps=4.9 q=24.8 size=N/A time=00:00:01.80 bitrate=N/A    frame=   93 fps=4.9 q=24.8 size=N/A time=00:00:01.86 bitrate=N/A    frame=   96 fps=5.0 q=24.8 size=N/A time=00:00:01.92 bitrate=N/A    frame=  100 fps=5.0 q=24.8 size=N/A time=00:00:02.00 bitrate=N/A    frame=  103 fps=5.0 q=24.8 size=N/A time=00:00:02.06 bitrate=N/A    frame=  106 fps=5.1 q=24.8 size=N/A time=00:00:02.12 bitrate=N/A    frame=  110 fps=5.1 q=24.8 size=N/A time=00:00:02.20 bitrate=N/A    frame=  113 fps=5.1 q=24.8 size=N/A time=00:00:02.26 bitrate=N/A    frame=  116 fps=5.1 q=24.8 size=N/A time=00:00:02.32 bitrate=N/A    frame=  119 fps=5.1 q=24.8 size=N/A time=00:00:02.38 bitrate=N/A    frame=  123 fps=5.2 q=24.8 size=N/A time=00:00:02.46 bitrate=N/A    frame=  126 fps=5.2 q=24.8 size=N/A time=00:00:02.52 bitrate=N/A    frame=  129 fps=5.2 q=24.8 size=N/A time=00:00:02.58 bitrate=N/A    frame=  132 fps=5.2 q=24.8 size=N/A time=00:00:02.64 bitrate=N/A    frame=  135 fps=5.2 q=24.8 size=N/A time=00:00:02.70 bitrate=N/A    frame=  139 fps=5.3 q=24.8 size=N/A time=00:00:02.78 bitrate=N/A    frame=  143 fps=5.3 q=24.8 size=N/A time=00:00:02.86 bitrate=N/A    frame=  147 fps=5.3 q=24.8 size=N/A time=00:00:02.94 bitrate=N/A    frame=  150 fps=5.3 q=24.8 size=N/A time=00:00:03.00 bitrate=N/A    frame=  153 fps=5.3 q=24.8 size=N/A time=00:00:03.06 bitrate=N/A    frame=  157 fps=5.3 q=24.8 size=N/A time=00:00:03.14 bitrate=N/A    frame=  159 fps=5.3 q=24.8 size=N/A time=00:00:03.18 bitrate=N/A    frame=  162 fps=5.2 q=24.8 size=N/A time=00:00:03.24 bitrate=N/A    frame=  166 fps=5.3 q=24.8 size=N/A time=00:00:03.32 bitrate=N/A    frame=  170 fps=5.3 q=24.8 size=N/A time=00:00:03.40 bitrate=N/A    frame=  174 fps=5.3 q=24.8 size=N/A time=00:00:03.48 bitrate=N/A    frame=  177 fps=5.3 q=24.8 size=N/A time=00:00:03.54 bitrate=N/A    frame=  181 fps=5.4 q=24.8 size=N/A time=00:00:03.62 bitrate=N/A    frame=  184 fps=5.3 q=24.8 size=N/A time=00:00:03.68 bitrate=N/A    frame=  187 fps=5.3 q=24.8 size=N/A time=00:00:03.74 bitrate=N/A    frame=  190 fps=5.3 q=24.8 size=N/A time=00:00:03.80 bitrate=N/A    frame=  193 fps=5.3 q=24.8 size=N/A time=00:00:03.86 bitrate=N/A    frame=  196 fps=5.3 q=24.8 size=N/A time=00:00:03.92 bitrate=N/A    frame=  199 fps=5.3 q=24.8 size=N/A time=00:00:03.98 bitrate=N/A    frame=  203 fps=5.3 q=24.8 size=N/A time=00:00:04.06 bitrate=N/A    frame=  206 fps=5.3 q=24.8 size=N/A time=00:00:04.12 bitrate=N/A    frame=  209 fps=5.2 q=24.8 size=N/A time=00:00:04.18 bitrate=N/A    frame=  212 fps=5.2 q=24.8 size=N/A time=00:00:04.24 bitrate=N/A    frame=  214 fps=5.2 q=24.8 size=N/A time=00:00:04.28 bitrate=N/A    frame=  216 fps=5.2 q=24.8 size=N/A time=00:00:04.32 bitrate=N/A    frame=  219 fps=5.2 q=24.8 size=N/A time=00:00:04.38 bitrate=N/A    frame=  223 fps=5.2 q=24.8 size=N/A time=00:00:04.46 bitrate=N/A    frame=  226 fps=5.2 q=24.8 size=N/A time=00:00:04.52 bitrate=N/A    frame=  229 fps=5.2 q=24.8 size=N/A time=00:00:04.58 bitrate=N/A    frame=  233 fps=5.2 q=24.8 size=N/A time=00:00:04.66 bitrate=N/A    frame=  235 fps=5.2 q=24.8 size=N/A time=00:00:04.70 bitrate=N/A    frame=  238 fps=5.2 q=24.8 size=N/A time=00:00:04.76 bitrate=N/A    frame=  242 fps=5.2 q=24.8 size=N/A time=00:00:04.84 bitrate=N/A    frame=  245 fps=5.2 q=24.8 size=N/A time=00:00:04.90 bitrate=N/A    frame=  248 fps=5.2 q=24.8 size=N/A time=00:00:04.96 bitrate=N/A    frame=  251 fps=5.2 q=24.8 size=N/A time=00:00:05.02 bitrate=N/A    frame=  255 fps=5.2 q=24.8 size=N/A time=00:00:05.10 bitrate=N/A    frame=  258 fps=5.3 q=24.8 size=N/A time=00:00:05.16 bitrate=N/A    frame=  261 fps=5.3 q=24.8 size=N/A time=00:00:05.22 bitrate=N/A    frame=  265 fps=5.3 q=24.8 size=N/A time=00:00:05.30 bitrate=N/A    frame=  269 fps=5.3 q=24.8 size=N/A time=00:00:05.38 bitrate=N/A    frame=  272 fps=5.3 q=24.8 size=N/A time=00:00:05.44 bitrate=N/A    frame=  275 fps=5.3 q=24.8 size=N/A time=00:00:05.50 bitrate=N/A    frame=  278 fps=5.3 q=24.8 size=N/A time=00:00:05.56 bitrate=N/A    frame=  281 fps=5.3 q=24.8 size=N/A time=00:00:05.62 bitrate=N/A    frame=  285 fps=5.3 q=24.8 size=N/A time=00:00:05.70 bitrate=N/A    frame=  289 fps=5.3 q=24.8 size=N/A time=00:00:05.78 bitrate=N/A    frame=  293 fps=5.3 q=24.8 size=N/A time=00:00:05.86 bitrate=N/A    frame=  296 fps=5.3 q=24.8 size=N/A time=00:00:05.92 bitrate=N/A    frame=  299 fps=5.3 q=24.8 size=N/A time=00:00:05.98 bitrate=N/A    frame=  303 fps=5.3 q=24.8 size=N/A time=00:00:06.06 bitrate=N/A    frame=  307 fps=5.3 q=24.8 size=N/A time=00:00:06.14 bitrate=N/A    frame=  310 fps=5.3 q=24.8 size=N/A time=00:00:06.20 bitrate=N/A    frame=  313 fps=5.3 q=24.8 size=N/A time=00:00:06.26 bitrate=N/A    frame=  316 fps=5.3 q=24.8 size=N/A time=00:00:06.32 bitrate=N/A    frame=  320 fps=5.3 q=24.8 size=N/A time=00:00:06.40 bitrate=N/A    frame=  322 fps=5.3 q=24.8 size=N/A time=00:00:06.44 bitrate=N/A    frame=  326 fps=5.3 q=24.8 size=N/A time=00:00:06.52 bitrate=N/A    frame=  329 fps=5.3 q=24.8 size=N/A time=00:00:06.58 bitrate=N/A    frame=  333 fps=5.3 q=24.8 size=N/A time=00:00:06.66 bitrate=N/A    frame=  336 fps=5.3 q=24.8 size=N/A time=00:00:06.72 bitrate=N/A    frame=  339 fps=5.3 q=24.8 size=N/A time=00:00:06.78 bitrate=N/A    frame=  343 fps=5.3 q=24.8 size=N/A time=00:00:06.86 bitrate=N/A    frame=  346 fps=5.3 q=24.8 size=N/A time=00:00:06.92 bitrate=N/A    frame=  349 fps=5.3 q=24.8 size=N/A time=00:00:06.98 bitrate=N/A    frame=  352 fps=5.3 q=24.8 size=N/A time=00:00:07.04 bitrate=N/A    frame=  356 fps=5.4 q=24.8 size=N/A time=00:00:07.12 bitrate=N/A    frame=  359 fps=5.3 q=24.8 size=N/A time=00:00:07.18 bitrate=N/A    frame=  363 fps=5.3 q=24.8 size=N/A time=00:00:07.26 bitrate=N/A    frame=  366 fps=5.3 q=24.8 size=N/A time=00:00:07.32 bitrate=N/A    frame=  370 fps=5.4 q=24.8 size=N/A time=00:00:07.40 bitrate=N/A    frame=  374 fps=5.4 q=24.8 size=N/A time=00:00:07.48 bitrate=N/A    frame=  378 fps=5.4 q=24.8 size=N/A time=00:00:07.56 bitrate=N/A    frame=  381 fps=5.4 q=24.8 size=N/A time=00:00:07.62 bitrate=N/A    frame=  384 fps=5.4 q=24.8 size=N/A time=00:00:07.68 bitrate=N/A    frame=  389 fps=5.4 q=24.8 size=N/A time=00:00:07.78 bitrate=N/A    frame=  392 fps=5.4 q=24.8 size=N/A time=00:00:07.84 bitrate=N/A    frame=  395 fps=5.4 q=24.8 size=N/A time=00:00:07.90 bitrate=N/A    frame=  398 fps=5.4 q=24.8 size=N/A time=00:00:07.96 bitrate=N/A    frame=  401 fps=5.4 q=24.8 size=N/A time=00:00:08.02 bitrate=N/A    frame=  404 fps=5.4 q=24.8 size=N/A time=00:00:08.08 bitrate=N/A    frame=  408 fps=5.4 q=24.8 size=N/A time=00:00:08.16 bitrate=N/A    frame=  412 fps=5.4 q=24.8 size=N/A time=00:00:08.24 bitrate=N/A    frame=  414 fps=5.4 q=24.8 size=N/A time=00:00:08.28 bitrate=N/A    frame=  417 fps=5.4 q=24.8 size=N/A time=00:00:08.34 bitrate=N/A    frame=  420 fps=5.4 q=24.8 size=N/A time=00:00:08.40 bitrate=N/A    frame=  423 fps=5.4 q=24.8 size=N/A time=00:00:08.46 bitrate=N/A    frame=  426 fps=5.4 q=24.8 size=N/A time=00:00:08.52 bitrate=N/A    frame=  429 fps=5.4 q=24.8 size=N/A time=00:00:08.58 bitrate=N/A    frame=  433 fps=5.4 q=24.8 size=N/A time=00:00:08.66 bitrate=N/A    frame=  436 fps=5.4 q=24.8 size=N/A time=00:00:08.72 bitrate=N/A    frame=  440 fps=5.4 q=24.8 size=N/A time=00:00:08.80 bitrate=N/A    frame=  443 fps=5.4 q=24.8 size=N/A time=00:00:08.86 bitrate=N/A    frame=  446 fps=5.4 q=24.8 size=N/A time=00:00:08.92 bitrate=N/A    frame=  449 fps=5.4 q=24.8 size=N/A time=00:00:08.98 bitrate=N/A    frame=  453 fps=5.4 q=24.8 size=N/A time=00:00:09.06 bitrate=N/A    frame=  457 fps=5.4 q=24.8 size=N/A time=00:00:09.14 bitrate=N/A    frame=  461 fps=5.4 q=24.8 size=N/A time=00:00:09.22 bitrate=N/A    frame=  464 fps=5.4 q=24.8 size=N/A time=00:00:09.28 bitrate=N/A    frame=  466 fps=5.4 q=24.8 size=N/A time=00:00:09.32 bitrate=N/A    frame=  469 fps=5.4 q=24.8 size=N/A time=00:00:09.38 bitrate=N/A    frame=  473 fps=5.4 q=24.8 size=N/A time=00:00:09.46 bitrate=N/A    frame=  476 fps=5.4 q=24.8 size=N/A time=00:00:09.52 bitrate=N/A    frame=  480 fps=5.4 q=24.8 size=N/A time=00:00:09.60 bitrate=N/A    frame=  484 fps=5.4 q=24.8 size=N/A time=00:00:09.68 bitrate=N/A    frame=  487 fps=5.4 q=24.8 size=N/A time=00:00:09.74 bitrate=N/A    frame=  490 fps=5.4 q=24.8 size=N/A time=00:00:09.80 bitrate=N/A    frame=  494 fps=5.4 q=24.8 size=N/A time=00:00:09.88 bitrate=N/A    frame=  498 fps=5.4 q=24.8 size=N/A time=00:00:09.96 bitrate=N/A    frame=  500 fps=5.4 q=24.8 size=N/A time=00:00:10.00 bitrate=N/A    frame=  504 fps=5.4 q=24.8 size=N/A time=00:00:10.08 bitrate=N/A    frame=  508 fps=5.4 q=24.8 size=N/A time=00:00:10.16 bitrate=N/A    frame=  512 fps=5.4 q=24.8 size=N/A time=00:00:10.24 bitrate=N/A    frame=  515 fps=5.4 q=24.8 size=N/A time=00:00:10.30 bitrate=N/A    frame=  519 fps=5.4 q=24.8 size=N/A time=00:00:10.38 bitrate=N/A    frame=  522 fps=5.4 q=24.8 size=N/A time=00:00:10.44 bitrate=N/A    frame=  525 fps=5.4 q=24.8 size=N/A time=00:00:10.50 bitrate=N/A    frame=  527 fps=5.4 q=24.8 size=N/A time=00:00:10.54 bitrate=N/A    frame=  531 fps=5.4 q=24.8 size=N/A time=00:00:10.62 bitrate=N/A    frame=  535 fps=5.4 q=24.8 size=N/A time=00:00:10.70 bitrate=N/A    frame=  538 fps=5.4 q=24.8 size=N/A time=00:00:10.76 bitrate=N/A    frame=  541 fps=5.4 q=24.8 size=N/A time=00:00:10.82 bitrate=N/A    frame=  544 fps=5.4 q=24.8 size=N/A time=00:00:10.88 bitrate=N/A    frame=  548 fps=5.4 q=24.8 size=N/A time=00:00:10.96 bitrate=N/A    frame=  552 fps=5.5 q=24.8 size=N/A time=00:00:11.04 bitrate=N/A    frame=  556 fps=5.5 q=24.8 size=N/A time=00:00:11.12 bitrate=N/A    frame=  560 fps=5.5 q=24.8 size=N/A time=00:00:11.20 bitrate=N/A    frame=  562 fps=5.5 q=24.8 size=N/A time=00:00:11.24 bitrate=N/A    frame=  564 fps=5.4 q=24.8 size=N/A time=00:00:11.28 bitrate=N/A    frame=  567 fps=5.4 q=24.8 size=N/A time=00:00:11.34 bitrate=N/A    frame=  570 fps=5.4 q=24.8 size=N/A time=00:00:11.40 bitrate=N/A    frame=  573 fps=5.4 q=24.8 size=N/A time=00:00:11.46 bitrate=N/A    frame=  576 fps=5.4 q=24.8 size=N/A time=00:00:11.52 bitrate=N/A    frame=  580 fps=5.4 q=24.8 size=N/A time=00:00:11.60 bitrate=N/A    frame=  583 fps=5.4 q=24.8 size=N/A time=00:00:11.66 bitrate=N/A    frame=  586 fps=5.4 q=24.8 size=N/A time=00:00:11.72 bitrate=N/A    frame=  590 fps=5.4 q=24.8 size=N/A time=00:00:11.80 bitrate=N/A    frame=  593 fps=5.4 q=24.8 size=N/A time=00:00:11.86 bitrate=N/A    frame=  596 fps=5.4 q=24.8 size=N/A time=00:00:11.92 bitrate=N/A    frame=  599 fps=5.4 q=24.8 size=N/A time=00:00:11.98 bitrate=N/A    frame=  603 fps=5.5 q=24.8 size=N/A time=00:00:12.06 bitrate=N/A    frame=  606 fps=5.5 q=24.8 size=N/A time=00:00:12.12 bitrate=N/A    frame=  609 fps=5.5 q=24.8 size=N/A time=00:00:12.18 bitrate=N/A    frame=  612 fps=5.5 q=24.8 size=N/A time=00:00:12.24 bitrate=N/A    frame=  616 fps=5.5 q=24.8 size=N/A time=00:00:12.32 bitrate=N/A    frame=  620 fps=5.5 q=24.8 size=N/A time=00:00:12.40 bitrate=N/A    frame=  623 fps=5.5 q=24.8 size=N/A time=00:00:12.46 bitrate=N/A    frame=  626 fps=5.5 q=24.8 size=N/A time=00:00:12.52 bitrate=N/A    frame=  629 fps=5.5 q=24.8 size=N/A time=00:00:12.58 bitrate=N/A    frame=  632 fps=5.5 q=24.8 size=N/A time=00:00:12.64 bitrate=N/A    frame=  635 fps=5.4 q=24.8 size=N/A time=00:00:12.70 bitrate=N/A    frame=  638 fps=5.4 q=24.8 size=N/A time=00:00:12.76 bitrate=N/A    frame=  641 fps=5.4 q=24.8 size=N/A time=00:00:12.82 bitrate=N/A    frame=  644 fps=5.4 q=24.8 size=N/A time=00:00:12.88 bitrate=N/A    frame=  647 fps=5.4 q=24.8 size=N/A time=00:00:12.94 bitrate=N/A    frame=  650 fps=5.4 q=24.8 size=N/A time=00:00:13.00 bitrate=N/A    frame=  654 fps=5.5 q=24.8 size=N/A time=00:00:13.08 bitrate=N/A    frame=  657 fps=5.5 q=24.8 size=N/A time=00:00:13.14 bitrate=N/A    frame=  660 fps=5.4 q=24.8 size=N/A time=00:00:13.20 bitrate=N/A    frame=  663 fps=5.4 q=24.8 size=N/A time=00:00:13.26 bitrate=N/A    frame=  667 fps=5.4 q=24.8 size=N/A time=00:00:13.34 bitrate=N/A    frame=  670 fps=5.5 q=24.8 size=N/A time=00:00:13.40 bitrate=N/A    frame=  673 fps=5.5 q=24.8 size=N/A time=00:00:13.46 bitrate=N/A    frame=  676 fps=5.5 q=24.8 size=N/A time=00:00:13.52 bitrate=N/A    frame=  680 fps=5.5 q=24.8 size=N/A time=00:00:13.60 bitrate=N/A    frame=  683 fps=5.5 q=24.8 size=N/A time=00:00:13.66 bitrate=N/A    frame=  686 fps=5.5 q=24.8 size=N/A time=00:00:13.72 bitrate=N/A    frame=  689 fps=5.4 q=24.8 size=N/A time=00:00:13.78 bitrate=N/A    frame=  692 fps=5.4 q=24.8 size=N/A time=00:00:13.84 bitrate=N/A    frame=  695 fps=5.4 q=24.8 size=N/A time=00:00:13.90 bitrate=N/A    frame=  699 fps=5.4 q=24.8 size=N/A time=00:00:13.98 bitrate=N/A    frame=  703 fps=5.4 q=24.8 size=N/A time=00:00:14.06 bitrate=N/A    frame=  706 fps=5.4 q=24.8 size=N/A time=00:00:14.12 bitrate=N/A    frame=  710 fps=5.4 q=24.8 size=N/A time=00:00:14.20 bitrate=N/A    frame=  713 fps=5.4 q=24.8 size=N/A time=00:00:14.26 bitrate=N/A    frame=  716 fps=5.4 q=24.8 size=N/A time=00:00:14.32 bitrate=N/A    frame=  719 fps=5.4 q=24.8 size=N/A time=00:00:14.38 bitrate=N/A    frame=  723 fps=5.4 q=24.8 size=N/A time=00:00:14.46 bitrate=N/A    frame=  726 fps=5.4 q=24.8 size=N/A time=00:00:14.52 bitrate=N/A    frame=  730 fps=5.5 q=24.8 size=N/A time=00:00:14.60 bitrate=N/A    frame=  733 fps=5.5 q=24.8 size=N/A time=00:00:14.66 bitrate=N/A    frame=  737 fps=5.5 q=24.8 size=N/A time=00:00:14.74 bitrate=N/A    frame=  740 fps=5.5 q=24.8 size=N/A time=00:00:14.80 bitrate=N/A    frame=  743 fps=5.5 q=24.8 size=N/A time=00:00:14.86 bitrate=N/A    frame=  747 fps=5.5 q=24.8 size=N/A time=00:00:14.94 bitrate=N/A    frame=  750 fps=5.5 q=24.8 size=N/A time=00:00:15.00 bitrate=N/A    frame=  754 fps=5.5 q=24.8 size=N/A time=00:00:15.08 bitrate=N/A    frame=  757 fps=5.5 q=24.8 size=N/A time=00:00:15.14 bitrate=N/A    frame=  760 fps=5.5 q=24.8 size=N/A time=00:00:15.20 bitrate=N/A    frame=  764 fps=5.5 q=24.8 size=N/A time=00:00:15.28 bitrate=N/A    frame=  768 fps=5.5 q=24.8 size=N/A time=00:00:15.36 bitrate=N/A    frame=  772 fps=5.5 q=24.8 size=N/A time=00:00:15.44 bitrate=N/A    frame=  776 fps=5.5 q=24.8 size=N/A time=00:00:15.52 bitrate=N/A    frame=  779 fps=5.5 q=24.8 size=N/A time=00:00:15.58 bitrate=N/A    frame=  783 fps=5.5 q=24.8 size=N/A time=00:00:15.66 bitrate=N/A    frame=  787 fps=5.5 q=24.8 size=N/A time=00:00:15.74 bitrate=N/A    frame=  791 fps=5.5 q=24.8 size=N/A time=00:00:15.82 bitrate=N/A    frame=  794 fps=5.5 q=24.8 size=N/A time=00:00:15.88 bitrate=N/A    frame=  797 fps=5.5 q=24.8 size=N/A time=00:00:15.94 bitrate=N/A    frame=  801 fps=5.5 q=24.8 size=N/A time=00:00:16.02 bitrate=N/A    frame=  804 fps=5.5 q=24.8 size=N/A time=00:00:16.08 bitrate=N/A    frame=  807 fps=5.5 q=24.8 size=N/A time=00:00:16.14 bitrate=N/A    frame=  809 fps=5.5 q=24.8 size=N/A time=00:00:16.18 bitrate=N/A    frame=  813 fps=5.5 q=24.8 size=N/A time=00:00:16.26 bitrate=N/A    frame=  817 fps=5.5 q=24.8 size=N/A time=00:00:16.34 bitrate=N/A    frame=  821 fps=5.5 q=24.8 size=N/A time=00:00:16.42 bitrate=N/A    frame=  825 fps=5.5 q=24.8 size=N/A time=00:00:16.50 bitrate=N/A    frame=  828 fps=5.5 q=24.8 size=N/A time=00:00:16.56 bitrate=N/A    frame=  831 fps=5.5 q=24.8 size=N/A time=00:00:16.62 bitrate=N/A    frame=  834 fps=5.5 q=24.8 size=N/A time=00:00:16.68 bitrate=N/A    frame=  838 fps=5.5 q=24.8 size=N/A time=00:00:16.76 bitrate=N/A    frame=  841 fps=5.5 q=24.8 size=N/A time=00:00:16.82 bitrate=N/A    frame=  845 fps=5.5 q=24.8 size=N/A time=00:00:16.90 bitrate=N/A    frame=  848 fps=5.5 q=24.8 size=N/A time=00:00:16.96 bitrate=N/A    frame=  851 fps=5.5 q=24.8 size=N/A time=00:00:17.02 bitrate=N/A    frame=  854 fps=5.5 q=24.8 size=N/A time=00:00:17.08 bitrate=N/A    frame=  857 fps=5.5 q=24.8 size=N/A time=00:00:17.14 bitrate=N/A    frame=  860 fps=5.5 q=24.8 size=N/A time=00:00:17.20 bitrate=N/A    frame=  863 fps=5.5 q=24.8 size=N/A time=00:00:17.26 bitrate=N/A    frame=  867 fps=5.5 q=24.8 size=N/A time=00:00:17.34 bitrate=N/A    frame=  869 fps=5.5 q=24.8 size=N/A time=00:00:17.38 bitrate=N/A    frame=  873 fps=5.5 q=24.8 size=N/A time=00:00:17.46 bitrate=N/A    frame=  876 fps=5.5 q=24.8 size=N/A time=00:00:17.52 bitrate=N/A    frame=  879 fps=5.5 q=24.8 size=N/A time=00:00:17.58 bitrate=N/A    frame=  883 fps=5.5 q=24.8 size=N/A time=00:00:17.66 bitrate=N/A    frame=  886 fps=5.5 q=24.8 size=N/A time=00:00:17.72 bitrate=N/A    frame=  889 fps=5.5 q=24.8 size=N/A time=00:00:17.78 bitrate=N/A    frame=  892 fps=5.5 q=24.8 size=N/A time=00:00:17.84 bitrate=N/A    frame=  896 fps=5.5 q=24.8 size=N/A time=00:00:17.92 bitrate=N/A    frame=  898 fps=5.5 q=24.8 size=N/A time=00:00:17.96 bitrate=N/A    frame=  901 fps=5.5 q=24.8 size=N/A time=00:00:18.02 bitrate=N/A    frame=  905 fps=5.5 q=24.8 size=N/A time=00:00:18.10 bitrate=N/A    frame=  909 fps=5.5 q=24.8 size=N/A time=00:00:18.18 bitrate=N/A    frame=  912 fps=5.5 q=24.8 size=N/A time=00:00:18.24 bitrate=N/A    frame=  914 fps=5.5 q=24.8 size=N/A time=00:00:18.28 bitrate=N/A    frame=  917 fps=5.5 q=24.8 size=N/A time=00:00:18.34 bitrate=N/A    frame=  920 fps=5.5 q=24.8 size=N/A time=00:00:18.40 bitrate=N/A    frame=  924 fps=5.5 q=24.8 size=N/A time=00:00:18.48 bitrate=N/A    frame=  927 fps=5.5 q=24.8 size=N/A time=00:00:18.54 bitrate=N/A    frame=  930 fps=5.5 q=24.8 size=N/A time=00:00:18.60 bitrate=N/A    frame=  933 fps=5.5 q=24.8 size=N/A time=00:00:18.66 bitrate=N/A    frame=  937 fps=5.5 q=24.8 size=N/A time=00:00:18.74 bitrate=N/A    frame=  940 fps=5.5 q=24.8 size=N/A time=00:00:18.80 bitrate=N/A    frame=  944 fps=5.5 q=24.8 size=N/A time=00:00:18.88 bitrate=N/A    frame=  948 fps=5.5 q=24.8 size=N/A time=00:00:18.96 bitrate=N/A    frame=  952 fps=5.5 q=24.8 size=N/A time=00:00:19.04 bitrate=N/A    frame=  955 fps=5.5 q=24.8 size=N/A time=00:00:19.10 bitrate=N/A    frame=  958 fps=5.5 q=24.8 size=N/A time=00:00:19.16 bitrate=N/A    frame=  960 fps=5.5 q=24.8 size=N/A time=00:00:19.20 bitrate=N/A    frame=  963 fps=5.5 q=24.8 size=N/A time=00:00:19.26 bitrate=N/A    frame=  966 fps=5.5 q=24.8 size=N/A time=00:00:19.32 bitrate=N/A    frame=  970 fps=5.5 q=24.8 size=N/A time=00:00:19.40 bitrate=N/A    frame=  973 fps=5.5 q=24.8 size=N/A time=00:00:19.46 bitrate=N/A    frame=  977 fps=5.5 q=24.8 size=N/A time=00:00:19.54 bitrate=N/A    frame=  980 fps=5.5 q=24.8 size=N/A time=00:00:19.60 bitrate=N/A    frame=  984 fps=5.5 q=24.8 size=N/A time=00:00:19.68 bitrate=N/A    frame=  987 fps=5.5 q=24.8 size=N/A time=00:00:19.74 bitrate=N/A    frame=  990 fps=5.5 q=24.8 size=N/A time=00:00:19.80 bitrate=N/A    frame=  994 fps=5.5 q=24.8 size=N/A time=00:00:19.88 bitrate=N/A    frame=  998 fps=5.5 q=24.8 size=N/A time=00:00:19.96 bitrate=N/A    frame= 1002 fps=5.5 q=24.8 size=N/A time=00:00:20.04 bitrate=N/A    frame= 1006 fps=5.5 q=24.8 size=N/A time=00:00:20.12 bitrate=N/A    frame= 1010 fps=5.5 q=24.8 size=N/A time=00:00:20.20 bitrate=N/A    frame= 1014 fps=5.5 q=24.8 size=N/A time=00:00:20.28 bitrate=N/A    frame= 1017 fps=5.5 q=24.8 size=N/A time=00:00:20.34 bitrate=N/A    frame= 1020 fps=5.5 q=24.8 size=N/A time=00:00:20.40 bitrate=N/A    frame= 1024 fps=5.5 q=24.8 size=N/A time=00:00:20.48 bitrate=N/A    frame= 1028 fps=5.5 q=24.8 size=N/A time=00:00:20.56 bitrate=N/A    frame= 1031 fps=5.5 q=24.8 size=N/A time=00:00:20.62 bitrate=N/A    frame= 1034 fps=5.5 q=24.8 size=N/A time=00:00:20.68 bitrate=N/A    frame= 1037 fps=5.5 q=24.8 size=N/A time=00:00:20.74 bitrate=N/A    frame= 1040 fps=5.5 q=24.8 size=N/A time=00:00:20.80 bitrate=N/A    frame= 1043 fps=5.5 q=24.8 size=N/A time=00:00:20.86 bitrate=N/A    frame= 1046 fps=5.5 q=24.8 size=N/A time=00:00:20.92 bitrate=N/A    frame= 1048 fps=5.5 q=24.8 size=N/A time=00:00:20.96 bitrate=N/A    frame= 1051 fps=5.5 q=24.8 size=N/A time=00:00:21.02 bitrate=N/A    frame= 1055 fps=5.5 q=24.8 size=N/A time=00:00:21.10 bitrate=N/A    frame= 1059 fps=5.5 q=24.8 size=N/A time=00:00:21.18 bitrate=N/A    frame= 1063 fps=5.5 q=24.8 size=N/A time=00:00:21.26 bitrate=N/A    frame= 1066 fps=5.5 q=24.8 size=N/A time=00:00:21.32 bitrate=N/A    frame= 1069 fps=5.5 q=24.8 size=N/A time=00:00:21.38 bitrate=N/A    frame= 1073 fps=5.5 q=24.8 size=N/A time=00:00:21.46 bitrate=N/A    frame= 1077 fps=5.5 q=24.8 size=N/A time=00:00:21.54 bitrate=N/A    frame= 1080 fps=5.5 q=24.8 size=N/A time=00:00:21.60 bitrate=N/A    frame= 1084 fps=5.5 q=24.8 size=N/A time=00:00:21.68 bitrate=N/A    frame= 1088 fps=5.5 q=24.8 size=N/A time=00:00:21.76 bitrate=N/A    frame= 1092 fps=5.5 q=24.8 size=N/A time=00:00:21.84 bitrate=N/A    frame= 1094 fps=5.5 q=24.8 size=N/A time=00:00:21.88 bitrate=N/A    frame= 1097 fps=5.5 q=24.8 size=N/A time=00:00:21.94 bitrate=N/A    frame= 1100 fps=5.5 q=24.8 size=N/A time=00:00:22.00 bitrate=N/A    frame= 1104 fps=5.5 q=24.8 size=N/A time=00:00:22.08 bitrate=N/A    frame= 1106 fps=5.5 q=24.8 size=N/A time=00:00:22.12 bitrate=N/A    frame= 1109 fps=5.5 q=24.8 size=N/A time=00:00:22.18 bitrate=N/A    frame= 1111 fps=5.5 q=24.8 size=N/A time=00:00:22.22 bitrate=N/A    frame= 1114 fps=5.5 q=24.8 size=N/A time=00:00:22.28 bitrate=N/A    frame= 1116 fps=5.5 q=24.8 size=N/A time=00:00:22.32 bitrate=N/A    frame= 1118 fps=5.5 q=24.8 size=N/A time=00:00:22.36 bitrate=N/A    frame= 1121 fps=5.5 q=24.8 size=N/A time=00:00:22.42 bitrate=N/A    frame= 1124 fps=5.5 q=24.8 size=N/A time=00:00:22.48 bitrate=N/A    frame= 1127 fps=5.5 q=24.8 size=N/A time=00:00:22.54 bitrate=N/A    frame= 1130 fps=5.5 q=24.8 size=N/A time=00:00:22.60 bitrate=N/A    frame= 1133 fps=5.5 q=24.8 size=N/A time=00:00:22.66 bitrate=N/A    frame= 1136 fps=5.5 q=24.8 size=N/A time=00:00:22.72 bitrate=N/A    frame= 1140 fps=5.5 q=24.8 size=N/A time=00:00:22.80 bitrate=N/A    frame= 1143 fps=5.5 q=24.8 size=N/A time=00:00:22.86 bitrate=N/A    frame= 1146 fps=5.5 q=24.8 size=N/A time=00:00:22.92 bitrate=N/A    frame= 1149 fps=5.5 q=24.8 size=N/A time=00:00:22.98 bitrate=N/A    frame= 1152 fps=5.5 q=24.8 size=N/A time=00:00:23.04 bitrate=N/A    frame= 1154 fps=5.5 q=24.8 size=N/A time=00:00:23.08 bitrate=N/A    frame= 1158 fps=5.5 q=24.8 size=N/A time=00:00:23.16 bitrate=N/A    frame= 1162 fps=5.5 q=24.8 size=N/A time=00:00:23.24 bitrate=N/A    frame= 1165 fps=5.5 q=24.8 size=N/A time=00:00:23.30 bitrate=N/A    frame= 1168 fps=5.5 q=24.8 size=N/A time=00:00:23.36 bitrate=N/A    frame= 1172 fps=5.5 q=24.8 size=N/A time=00:00:23.44 bitrate=N/A    frame= 1176 fps=5.5 q=24.8 size=N/A time=00:00:23.52 bitrate=N/A    frame= 1179 fps=5.5 q=24.8 size=N/A time=00:00:23.58 bitrate=N/A    frame= 1179 fps=5.5 q=24.8 Lsize=N/A time=00:00:23.58 bitrate=N/A    
video:1048480kB audio:0kB subtitle:0kB other streams:0kB global headers:0kB muxing overhead: unknown
+ turkic load DJI_0023_30m_szarvasragas_homokmegy_20180603_napos_napraforgo_T3 /home/horvathandras/vatic/vatic/videos/DJI_0023_30m_szarvasragas_homokmegy_20180603_napos_napraforgo_T3 $'Pozit\303\255vROI' $'Negat\303\255vROI' $'T\303\272r\303\241s' '~Friss' '~1-2Hetes' '~Régebbi' '~Egyéb1' '~Egyéb2' '~Egyéb3' $'R\303\241g\303\241s' '~Friss' '~1-2Hetes' '~Régebbi' '~Egyéb1' '~Egyéb2' '~Egyéb3' $'T\303\266r\303\251s' '~Friss' '~1-2Hetes' '~Régebbi' '~Egyéb1' '~Egyéb2' '~Egyéb3' $'Tapos\303\241s' '~Friss' '~1-2Hetes' '~Régebbi' '~Egyéb1' '~Egyéb2' '~Egyéb3' $'Eg\303\251szs\303\251gesN\303\266v\303\251ny' $'Egy\303\251b1' $'Egy\303\251b2' $'Egy\303\251b3' $'Egy\303\251b4' $'Egy\303\251b5' Bizonytalan $'M\305\261vel\305\221\303\272t' $'Gktapos\303\241s' $'Vet\305\221hiba' $'Sz\303\251ld\303\266nt\303\251s' $'J\303\251gk\303\241r' $'Belv\303\255z' $'Asz\303\241ly' $'Er\303\263zi\303\263' $'Egyszik\305\261Gyom' $'K\303\251tszik\305\261Gyom' $'Egy\303\251bN\303\266vv\303\251delmiPR' --offline --title '$filenameNoDot Video' --length 1000 --description 'vatic annotation'
+ turkic publish --offline
+ mkdir /home/horvathandras/vatic/vatic/public/videothumbnails/DJI_0023_30m_szarvasragas_homokmegy_20180603_napos_napraforgo_T3
+ cp /home/horvathandras/vatic/vatic/videos/DJI_0023_30m_szarvasragas_homokmegy_20180603_napos_napraforgo_T3/0/0/31.jpg /home/horvathandras/vatic/vatic/public/videothumbnails/DJI_0023_30m_szarvasragas_homokmegy_20180603_napos_napraforgo_T3/thumb.jpg
